<?xml version="1.0" standalone="no"?>
<!DOCTYPE svg PUBLIC "-//W3C//DTD SVG 20010904//EN"
 "http://www.w3.org/TR/2001/REC-SVG-20010904/DTD/svg10.dtd">
<svg version="1.0" xmlns="http://www.w3.org/2000/svg"
 width="499.000000pt" height="499.000000pt" viewBox="0 0 499.000000 499.000000"
 preserveAspectRatio="xMidYMid meet">
<metadata>
Created by potrace 1.14, written by Peter Selinger 2001-2017
</metadata>
<g transform="translate(0.000000,499.000000) scale(0.100000,-0.100000)"
fill="#000000" stroke="none">
<path d="M2215 4969 c-27 -3 -74 -9 -104 -13 -30 -4 -93 -16 -139 -27 -46 -12
-86 -18 -89 -15 -4 3 -11 2 -17 -3 -9 -7 -94 -35 -141 -46 -5 -1 -19 -6 -30
-10 -11 -4 -49 -19 -85 -32 -172 -65 -447 -209 -519 -272 -13 -12 -27 -21 -30
-21 -3 0 -19 -11 -35 -25 -16 -14 -32 -25 -35 -25 -4 0 -20 -12 -37 -27 -16
-16 -52 -46 -78 -68 -87 -72 -189 -176 -300 -305 -49 -57 -116 -149 -116 -159
0 -6 -4 -11 -8 -11 -4 0 -17 -14 -27 -32 -11 -17 -30 -48 -43 -67 -12 -20 -25
-44 -28 -53 -4 -10 -9 -18 -13 -18 -11 0 -146 -284 -182 -380 -62 -171 -121
-420 -138 -590 -15 -151 -4 -589 16 -655 4 -11 7 -31 8 -45 0 -14 4 -34 7 -45
4 -11 9 -36 12 -55 3 -19 8 -44 10 -55 27 -111 39 -152 66 -225 18 -47 33 -90
34 -97 1 -7 5 -16 9 -19 4 -4 7 -16 7 -26 0 -10 4 -18 9 -18 5 0 12 -12 15
-27 8 -34 38 -97 49 -101 4 -2 7 -9 7 -17 0 -36 157 -289 270 -434 73 -94 281
-309 354 -366 21 -16 43 -35 50 -41 6 -6 48 -36 91 -67 44 -31 85 -60 91 -64
27 -20 51 -34 67 -39 9 -4 17 -10 17 -13 0 -4 69 -42 152 -84 169 -84 210
-102 251 -112 15 -4 30 -11 33 -16 3 -5 14 -9 25 -9 10 0 27 -4 37 -9 27 -15
183 -57 273 -75 28 -6 85 -16 114 -21 55 -10 139 -17 217 -19 43 0 78 -3 78
-6 0 -8 114 -5 127 3 7 5 13 5 13 0 0 -4 18 -8 40 -8 22 0 40 2 40 5 0 3 32 6
72 7 176 3 405 44 577 105 31 11 63 21 71 23 33 7 179 69 265 112 274 137 453
268 675 492 116 117 152 158 222 254 20 29 41 57 45 62 25 32 83 126 83 135 0
5 3 10 8 10 4 0 12 10 18 23 6 12 32 62 58 110 54 102 128 277 118 277 -4 0
-2 4 3 8 16 12 92 265 109 367 3 17 8 41 11 55 6 30 14 89 21 150 2 25 6 127
8 226 2 100 6 186 9 191 4 6 3 13 0 17 -4 4 -8 32 -10 64 -3 62 -10 137 -13
137 -1 0 -3 18 -5 40 -2 22 -10 68 -18 103 -9 34 -16 65 -16 67 -1 3 -1 6 -2
8 0 1 -2 10 -4 21 -3 14 -21 88 -30 126 -2 6 -5 16 -29 85 -10 28 -19 55 -20
60 -4 14 -13 35 -54 135 -50 117 -113 237 -189 353 -34 54 -63 102 -63 107 0
4 -3 10 -8 12 -4 2 -38 44 -77 93 -75 97 -335 361 -366 370 -11 4 -19 10 -19
14 0 9 -208 159 -262 189 -20 12 -54 32 -75 45 -44 27 -268 137 -280 137 -7 0
-71 24 -138 51 -87 35 -278 81 -450 109 -78 13 -562 20 -640 9z m886 -1921
c21 -50 16 -95 -15 -131 -68 -79 -193 -41 -209 63 -9 57 36 118 94 127 19 3
36 7 38 9 10 10 81 -42 92 -68z m-1020 29 c28 -28 33 -44 31 -99 -3 -89 -123
-135 -190 -74 -56 50 -58 117 -7 172 31 32 38 35 85 33 42 -2 58 -8 81 -32z
m-20 -484 c51 -30 68 -114 35 -166 -19 -28 -70 -56 -95 -52 -9 2 -25 4 -36 5
-30 1 -66 36 -80 77 -36 103 80 193 176 136z m510 -10 c40 -34 52 -85 33 -133
-39 -96 -162 -98 -215 -4 -11 19 -13 36 -8 50 4 12 5 24 2 27 -9 9 38 68 61
77 39 16 97 8 127 -17z m490 10 c29 -17 54 -64 52 -95 0 -10 -1 -27 -2 -37 -1
-28 -55 -77 -91 -84 -80 -17 -157 62 -139 142 17 76 110 115 180 74z m-1019
-492 c86 -29 99 -155 20 -207 -15 -10 -44 -17 -70 -16 -35 0 -51 6 -76 31 -18
18 -34 39 -35 49 -8 75 10 114 68 144 35 18 39 18 93 -1z m973 9 c0 -1 11 -3
24 -6 54 -10 89 -87 68 -149 -24 -69 -93 -96 -167 -65 -87 36 -80 178 9 214
28 11 66 14 66 6z"/>
</g>
</svg>
